<svg width="26" height="26" viewBox="0 0 26 26" fill="none" xmlns="http://www.w3.org/2000/svg">
<path d="M13.1959 25.6436C12.4883 25.6456 11.8093 25.3642 11.3106 24.8622L0.861268 14.4155C0.309898 13.866 0.0272322 13.1023 0.0879348 12.3262L0.754602 3.57155C0.849827 2.25379 1.90049 1.20711 3.2186 1.11688L11.9733 0.450217C12.0426 0.435549 12.1106 0.435549 12.1799 0.435549C12.8861 0.434703 13.5634 0.715988 14.0613 1.21688L24.5106 11.6622C25.0109 12.1623 25.292 12.8408 25.292 13.5482C25.292 14.2556 25.0109 14.9341 24.5106 15.4342L15.0813 24.8622C14.5824 25.364 13.9035 25.6453 13.1959 25.6436ZM7.5386 5.22488C6.3317 5.22523 5.27549 6.03613 4.9634 7.20199C4.65131 8.36784 5.16116 9.59797 6.20649 10.2012C7.25181 10.8045 8.57199 10.6304 9.42527 9.77688L9.4346 9.76888L9.44394 9.75955L9.43327 9.76888C10.1912 9.00429 10.415 7.85896 10.0007 6.86529C9.58636 5.87163 8.61519 5.22456 7.5386 5.22488Z" fill="#40BB15"/>
</svg>
